# xmcd
#
# Track frame offsets:
#	150
#	16313
#	32377
#	44739
#	60969
#	75168
#	92834
#	106998
#	126330
#	141802
#	157042
#	172603
#	189326
#	200780
#	211231
#	226157
#	235836
#	249661
#	263982
#	278954
#
# Disc length: 3911 seconds
#
# Revision: 1
# Processed by: cddbd v1.5.2PL0 Copyright (c) Steve Scherf et al.
# Submitted via: audiograbber 1.80
#
DISCID=090f4514
DTITLE=Fargone Beaties - The Best of The Fargone Beaties
DYEAR=1900
DGENRE=
TTITLE0=Highway to Hell
TTITLE1=Stairway to heaven
TTITLE2=Wild Thing (Bonanza)
TTITLE3=Play that Country Music
TTITLE4=Sex and Drugs and Rock and Roll
TTITLE5=Hey Joe
TTITLE6=She's my baby
TTITLE7=Get it On
TTITLE8=Suspicious Minds
TTITLE9=Born to be Wild
TTITLE10=Ballrom Blitz
TTITLE11=Single rop
TTITLE12=Great Ball of Fire
TTITLE13=Hear you Knockin
TTITLE14=Oh Lonesome Me
TTITLE15=She's So Fine
TTITLE16=Hey Good Lookin
TTITLE17=That's The Way
TTITLE18=Fat Bottomed Girl
TTITLE19=The Last Time
EXTD=
EXTT0=
EXTT1=
EXTT2=
EXTT3=
EXTT4=
EXTT5=
EXTT6=
EXTT7=
EXTT8=
EXTT9=
EXTT10=
EXTT11=
EXTT12=
EXTT13=
EXTT14=
EXTT15=
EXTT16=
EXTT17=
EXTT18=
EXTT19=
PLAYORDER=
